<mxfile host="app.diagrams.net" agent="Mozilla/5.0 (Windows NT 10.0; Win64; x64; rv:132.0) Gecko/20100101 Firefox/132.0" version="24.8.4">
  <diagram name="Halaman-1" id="tOsAa58flxY_EMwdw_JU">
    <mxGraphModel dx="1178" dy="545" grid="1" gridSize="10" guides="1" tooltips="1" connect="1" arrows="1" fold="1" page="1" pageScale="1" pageWidth="1100" pageHeight="850" math="0" shadow="0">
      <root>
        <mxCell id="0" />
        <mxCell id="1" parent="0" />
        <mxCell id="8J3x1U9TrHDp-f-B6_xc-1" value="&lt;font style=&quot;font-size: 9px;&quot;&gt;&lt;b style=&quot;mso-bidi-font-weight:normal&quot;&gt;&lt;i style=&quot;mso-bidi-font-style:normal&quot;&gt;&lt;span style=&quot;font-family: &amp;quot;Times New Roman&amp;quot;, serif;&quot;&gt;Activity Diagram Akses Hompage Pegawai&lt;/span&gt;&lt;/i&gt;&lt;br&gt;&lt;/b&gt;&lt;/font&gt;" style="swimlane;html=1;childLayout=stackLayout;startSize=20;rounded=0;shadow=0;labelBackgroundColor=none;strokeWidth=1;fontFamily=Verdana;fontSize=8;align=center;" vertex="1" parent="1">
          <mxGeometry x="50" y="78" width="440" height="472" as="geometry" />
        </mxCell>
        <mxCell id="8J3x1U9TrHDp-f-B6_xc-2" value="User" style="swimlane;html=1;startSize=20;" vertex="1" parent="8J3x1U9TrHDp-f-B6_xc-1">
          <mxGeometry y="20" width="210" height="452" as="geometry" />
        </mxCell>
        <mxCell id="8J3x1U9TrHDp-f-B6_xc-3" style="edgeStyle=orthogonalEdgeStyle;rounded=0;orthogonalLoop=1;jettySize=auto;html=1;entryX=0.5;entryY=0;entryDx=0;entryDy=0;" edge="1" parent="8J3x1U9TrHDp-f-B6_xc-2" source="8J3x1U9TrHDp-f-B6_xc-4" target="8J3x1U9TrHDp-f-B6_xc-5">
          <mxGeometry relative="1" as="geometry" />
        </mxCell>
        <mxCell id="8J3x1U9TrHDp-f-B6_xc-4" value="" style="strokeWidth=2;html=1;shape=mxgraph.flowchart.start_2;whiteSpace=wrap;" vertex="1" parent="8J3x1U9TrHDp-f-B6_xc-2">
          <mxGeometry x="65" y="50" width="30" height="30" as="geometry" />
        </mxCell>
        <mxCell id="8J3x1U9TrHDp-f-B6_xc-5" value="Akses Website" style="rounded=1;whiteSpace=wrap;html=1;fontSize=10;" vertex="1" parent="8J3x1U9TrHDp-f-B6_xc-2">
          <mxGeometry x="30" y="110" width="100" height="30" as="geometry" />
        </mxCell>
        <mxCell id="8J3x1U9TrHDp-f-B6_xc-34" style="edgeStyle=orthogonalEdgeStyle;rounded=0;orthogonalLoop=1;jettySize=auto;html=1;entryX=0.5;entryY=0;entryDx=0;entryDy=0;" edge="1" parent="8J3x1U9TrHDp-f-B6_xc-2" source="8J3x1U9TrHDp-f-B6_xc-6" target="8J3x1U9TrHDp-f-B6_xc-33">
          <mxGeometry relative="1" as="geometry" />
        </mxCell>
        <mxCell id="8J3x1U9TrHDp-f-B6_xc-6" value="Pilih Menu Profile" style="rounded=1;whiteSpace=wrap;html=1;fontSize=10;" vertex="1" parent="8J3x1U9TrHDp-f-B6_xc-2">
          <mxGeometry x="30" y="232" width="100" height="30" as="geometry" />
        </mxCell>
        <mxCell id="8J3x1U9TrHDp-f-B6_xc-7" value="&lt;div&gt;Tampil Homepage&lt;/div&gt;&lt;div&gt;web portal&lt;br&gt;&lt;/div&gt;" style="rounded=1;whiteSpace=wrap;html=1;fontSize=10;" vertex="1" parent="8J3x1U9TrHDp-f-B6_xc-2">
          <mxGeometry x="270" y="110" width="100" height="30" as="geometry" />
        </mxCell>
        <mxCell id="8J3x1U9TrHDp-f-B6_xc-8" style="edgeStyle=orthogonalEdgeStyle;rounded=0;orthogonalLoop=1;jettySize=auto;html=1;entryX=0.5;entryY=0;entryDx=0;entryDy=0;" edge="1" parent="8J3x1U9TrHDp-f-B6_xc-2" source="8J3x1U9TrHDp-f-B6_xc-9" target="8J3x1U9TrHDp-f-B6_xc-11">
          <mxGeometry relative="1" as="geometry" />
        </mxCell>
        <mxCell id="8J3x1U9TrHDp-f-B6_xc-9" value="Mengambil data Pegawai" style="rounded=1;whiteSpace=wrap;html=1;fontSize=10;" vertex="1" parent="8J3x1U9TrHDp-f-B6_xc-2">
          <mxGeometry x="270" y="232" width="100" height="30" as="geometry" />
        </mxCell>
        <mxCell id="8J3x1U9TrHDp-f-B6_xc-10" style="edgeStyle=orthogonalEdgeStyle;rounded=0;orthogonalLoop=1;jettySize=auto;html=1;entryX=0.5;entryY=0;entryDx=0;entryDy=0;" edge="1" parent="8J3x1U9TrHDp-f-B6_xc-2" source="8J3x1U9TrHDp-f-B6_xc-11" target="8J3x1U9TrHDp-f-B6_xc-12">
          <mxGeometry relative="1" as="geometry" />
        </mxCell>
        <mxCell id="8J3x1U9TrHDp-f-B6_xc-11" value="Menampilkan daftar pegawai" style="rounded=1;whiteSpace=wrap;html=1;fontSize=10;" vertex="1" parent="8J3x1U9TrHDp-f-B6_xc-2">
          <mxGeometry x="270" y="322" width="100" height="30" as="geometry" />
        </mxCell>
        <mxCell id="8J3x1U9TrHDp-f-B6_xc-12" value="" style="ellipse;shape=doubleEllipse;html=1;dashed=0;whiteSpace=wrap;aspect=fixed;" vertex="1" parent="8J3x1U9TrHDp-f-B6_xc-2">
          <mxGeometry x="305" y="392" width="30" height="30" as="geometry" />
        </mxCell>
        <mxCell id="8J3x1U9TrHDp-f-B6_xc-13" style="edgeStyle=orthogonalEdgeStyle;rounded=0;orthogonalLoop=1;jettySize=auto;html=1;entryX=0;entryY=0.5;entryDx=0;entryDy=0;" edge="1" parent="8J3x1U9TrHDp-f-B6_xc-2" source="8J3x1U9TrHDp-f-B6_xc-5" target="8J3x1U9TrHDp-f-B6_xc-7">
          <mxGeometry relative="1" as="geometry" />
        </mxCell>
        <mxCell id="8J3x1U9TrHDp-f-B6_xc-14" style="edgeStyle=orthogonalEdgeStyle;rounded=0;orthogonalLoop=1;jettySize=auto;html=1;" edge="1" parent="8J3x1U9TrHDp-f-B6_xc-2" source="8J3x1U9TrHDp-f-B6_xc-7" target="8J3x1U9TrHDp-f-B6_xc-6">
          <mxGeometry relative="1" as="geometry">
            <Array as="points">
              <mxPoint x="320" y="192" />
              <mxPoint x="80" y="192" />
            </Array>
          </mxGeometry>
        </mxCell>
        <mxCell id="8J3x1U9TrHDp-f-B6_xc-15" style="edgeStyle=orthogonalEdgeStyle;rounded=0;orthogonalLoop=1;jettySize=auto;html=1;entryX=0;entryY=0.5;entryDx=0;entryDy=0;exitX=1;exitY=0.5;exitDx=0;exitDy=0;" edge="1" parent="8J3x1U9TrHDp-f-B6_xc-2" source="8J3x1U9TrHDp-f-B6_xc-33" target="8J3x1U9TrHDp-f-B6_xc-9">
          <mxGeometry relative="1" as="geometry">
            <Array as="points">
              <mxPoint x="230" y="297" />
              <mxPoint x="230" y="247" />
            </Array>
          </mxGeometry>
        </mxCell>
        <mxCell id="8J3x1U9TrHDp-f-B6_xc-33" value="Pilih data pegawai" style="rounded=1;whiteSpace=wrap;html=1;fontSize=10;" vertex="1" parent="8J3x1U9TrHDp-f-B6_xc-2">
          <mxGeometry x="30" y="282" width="100" height="30" as="geometry" />
        </mxCell>
        <mxCell id="8J3x1U9TrHDp-f-B6_xc-16" value="Sistem" style="swimlane;html=1;startSize=20;" vertex="1" parent="8J3x1U9TrHDp-f-B6_xc-1">
          <mxGeometry x="210" y="20" width="230" height="452" as="geometry" />
        </mxCell>
        <mxCell id="8J3x1U9TrHDp-f-B6_xc-54" value="&lt;font style=&quot;font-size: 9px;&quot;&gt;&lt;b style=&quot;mso-bidi-font-weight:normal&quot;&gt;&lt;i style=&quot;mso-bidi-font-style:normal&quot;&gt;&lt;span style=&quot;font-family: &amp;quot;Times New Roman&amp;quot;, serif;&quot;&gt;Activity Diagram Akses Hompage Pegawai&lt;/span&gt;&lt;/i&gt;&lt;br&gt;&lt;/b&gt;&lt;/font&gt;" style="swimlane;html=1;childLayout=stackLayout;startSize=20;rounded=0;shadow=0;labelBackgroundColor=none;strokeWidth=1;fontFamily=Verdana;fontSize=8;align=center;" vertex="1" parent="1">
          <mxGeometry x="520" y="80" width="440" height="472" as="geometry" />
        </mxCell>
        <mxCell id="8J3x1U9TrHDp-f-B6_xc-55" value="Admin" style="swimlane;html=1;startSize=20;" vertex="1" parent="8J3x1U9TrHDp-f-B6_xc-54">
          <mxGeometry y="20" width="210" height="452" as="geometry" />
        </mxCell>
        <mxCell id="8J3x1U9TrHDp-f-B6_xc-56" style="edgeStyle=orthogonalEdgeStyle;rounded=0;orthogonalLoop=1;jettySize=auto;html=1;entryX=0.5;entryY=0;entryDx=0;entryDy=0;" edge="1" parent="8J3x1U9TrHDp-f-B6_xc-55" source="8J3x1U9TrHDp-f-B6_xc-57" target="8J3x1U9TrHDp-f-B6_xc-58">
          <mxGeometry relative="1" as="geometry" />
        </mxCell>
        <mxCell id="8J3x1U9TrHDp-f-B6_xc-57" value="" style="strokeWidth=2;html=1;shape=mxgraph.flowchart.start_2;whiteSpace=wrap;" vertex="1" parent="8J3x1U9TrHDp-f-B6_xc-55">
          <mxGeometry x="65" y="50" width="30" height="30" as="geometry" />
        </mxCell>
        <mxCell id="8J3x1U9TrHDp-f-B6_xc-58" value="Akses Website" style="rounded=1;whiteSpace=wrap;html=1;fontSize=10;" vertex="1" parent="8J3x1U9TrHDp-f-B6_xc-55">
          <mxGeometry x="30" y="110" width="100" height="30" as="geometry" />
        </mxCell>
        <mxCell id="8J3x1U9TrHDp-f-B6_xc-59" style="edgeStyle=orthogonalEdgeStyle;rounded=0;orthogonalLoop=1;jettySize=auto;html=1;entryX=0.5;entryY=0;entryDx=0;entryDy=0;" edge="1" parent="8J3x1U9TrHDp-f-B6_xc-55" source="8J3x1U9TrHDp-f-B6_xc-60" target="8J3x1U9TrHDp-f-B6_xc-70">
          <mxGeometry relative="1" as="geometry" />
        </mxCell>
        <mxCell id="8J3x1U9TrHDp-f-B6_xc-60" value="Pilih Menu Profile" style="rounded=1;whiteSpace=wrap;html=1;fontSize=10;" vertex="1" parent="8J3x1U9TrHDp-f-B6_xc-55">
          <mxGeometry x="30" y="232" width="100" height="30" as="geometry" />
        </mxCell>
        <mxCell id="8J3x1U9TrHDp-f-B6_xc-61" value="&lt;div&gt;Tampil Homepage&lt;/div&gt;&lt;div&gt;web portal&lt;br&gt;&lt;/div&gt;" style="rounded=1;whiteSpace=wrap;html=1;fontSize=10;" vertex="1" parent="8J3x1U9TrHDp-f-B6_xc-55">
          <mxGeometry x="270" y="110" width="100" height="30" as="geometry" />
        </mxCell>
        <mxCell id="8J3x1U9TrHDp-f-B6_xc-62" style="edgeStyle=orthogonalEdgeStyle;rounded=0;orthogonalLoop=1;jettySize=auto;html=1;entryX=0.5;entryY=0;entryDx=0;entryDy=0;" edge="1" parent="8J3x1U9TrHDp-f-B6_xc-55" source="8J3x1U9TrHDp-f-B6_xc-63" target="8J3x1U9TrHDp-f-B6_xc-65">
          <mxGeometry relative="1" as="geometry" />
        </mxCell>
        <mxCell id="8J3x1U9TrHDp-f-B6_xc-63" value="Mengambil data Pegawai" style="rounded=1;whiteSpace=wrap;html=1;fontSize=10;" vertex="1" parent="8J3x1U9TrHDp-f-B6_xc-55">
          <mxGeometry x="270" y="232" width="100" height="30" as="geometry" />
        </mxCell>
        <mxCell id="8J3x1U9TrHDp-f-B6_xc-64" style="edgeStyle=orthogonalEdgeStyle;rounded=0;orthogonalLoop=1;jettySize=auto;html=1;entryX=0.5;entryY=0;entryDx=0;entryDy=0;" edge="1" parent="8J3x1U9TrHDp-f-B6_xc-55" source="8J3x1U9TrHDp-f-B6_xc-65" target="8J3x1U9TrHDp-f-B6_xc-66">
          <mxGeometry relative="1" as="geometry" />
        </mxCell>
        <mxCell id="8J3x1U9TrHDp-f-B6_xc-65" value="Menampilkan daftar pegawai" style="rounded=1;whiteSpace=wrap;html=1;fontSize=10;" vertex="1" parent="8J3x1U9TrHDp-f-B6_xc-55">
          <mxGeometry x="270" y="322" width="100" height="30" as="geometry" />
        </mxCell>
        <mxCell id="8J3x1U9TrHDp-f-B6_xc-66" value="" style="ellipse;shape=doubleEllipse;html=1;dashed=0;whiteSpace=wrap;aspect=fixed;" vertex="1" parent="8J3x1U9TrHDp-f-B6_xc-55">
          <mxGeometry x="305" y="392" width="30" height="30" as="geometry" />
        </mxCell>
        <mxCell id="8J3x1U9TrHDp-f-B6_xc-67" style="edgeStyle=orthogonalEdgeStyle;rounded=0;orthogonalLoop=1;jettySize=auto;html=1;entryX=0;entryY=0.5;entryDx=0;entryDy=0;" edge="1" parent="8J3x1U9TrHDp-f-B6_xc-55" source="8J3x1U9TrHDp-f-B6_xc-58" target="8J3x1U9TrHDp-f-B6_xc-61">
          <mxGeometry relative="1" as="geometry" />
        </mxCell>
        <mxCell id="8J3x1U9TrHDp-f-B6_xc-68" style="edgeStyle=orthogonalEdgeStyle;rounded=0;orthogonalLoop=1;jettySize=auto;html=1;" edge="1" parent="8J3x1U9TrHDp-f-B6_xc-55" source="8J3x1U9TrHDp-f-B6_xc-61" target="8J3x1U9TrHDp-f-B6_xc-60">
          <mxGeometry relative="1" as="geometry">
            <Array as="points">
              <mxPoint x="320" y="192" />
              <mxPoint x="80" y="192" />
            </Array>
          </mxGeometry>
        </mxCell>
        <mxCell id="8J3x1U9TrHDp-f-B6_xc-69" style="edgeStyle=orthogonalEdgeStyle;rounded=0;orthogonalLoop=1;jettySize=auto;html=1;entryX=0;entryY=0.5;entryDx=0;entryDy=0;exitX=1;exitY=0.5;exitDx=0;exitDy=0;" edge="1" parent="8J3x1U9TrHDp-f-B6_xc-55" source="8J3x1U9TrHDp-f-B6_xc-70" target="8J3x1U9TrHDp-f-B6_xc-63">
          <mxGeometry relative="1" as="geometry">
            <Array as="points">
              <mxPoint x="230" y="297" />
              <mxPoint x="230" y="247" />
            </Array>
          </mxGeometry>
        </mxCell>
        <mxCell id="8J3x1U9TrHDp-f-B6_xc-70" value="Pilih data pegawai" style="rounded=1;whiteSpace=wrap;html=1;fontSize=10;" vertex="1" parent="8J3x1U9TrHDp-f-B6_xc-55">
          <mxGeometry x="30" y="282" width="100" height="30" as="geometry" />
        </mxCell>
        <mxCell id="8J3x1U9TrHDp-f-B6_xc-71" value="Sistem" style="swimlane;html=1;startSize=20;" vertex="1" parent="8J3x1U9TrHDp-f-B6_xc-54">
          <mxGeometry x="210" y="20" width="230" height="452" as="geometry" />
        </mxCell>
      </root>
    </mxGraphModel>
  </diagram>
</mxfile>
